<svg version="1.1" id="Layer_1" xmlns="http://www.w3.org/2000/svg" xmlns:xlink="http://www.w3.org/1999/xlink" x="0px" y="0px"
	 width="175.875px" height="68px" viewBox="0 0 175.875 68" enable-background="new 0 0 175.875 68" xml:space="preserve">
<g>
	<path fill="#1467BD" d="M26.876,10.367c12.505,0,23.004,7.8,25.95,19.333V2.272c0-1.071-0.87-1.941-1.941-1.941H2.725
		c-1.071,0-1.94,0.87-1.94,1.941v28.017C3.518,18.433,14.162,10.367,26.876,10.367"/>
	<path fill="#228B22" d="M52.559,44.119L42.36,31.372l-4.301,5.446L27.45,23.056L13.686,37.75l-4.658-3.871l-7.959,9.787
		l-0.284,0.351V66.06c0,1.072,0.869,1.94,1.94,1.94h48.16c1.071,0,1.941-0.868,1.941-1.94V44.453L52.559,44.119z"/>
	<path fill="#FFFFFF" d="M6.844,54.307v1.895c0,0.459,0.077,0.776,0.23,0.951c0.154,0.176,0.486,0.264,0.999,0.264v0.811H2.901
		v-0.811h0.153c0.498,0,0.82-0.093,0.969-0.274c0.149-0.183,0.224-0.497,0.224-0.94v-5.866c0-0.453-0.077-0.77-0.23-0.948
		c-0.153-0.176-0.474-0.267-0.962-0.267H2.901v-0.812H8.19v0.812H8.029c-0.494,0-0.813,0.093-0.962,0.274
		c-0.149,0.183-0.223,0.497-0.223,0.94v2.766l2.685-2.474c0.468-0.429,0.702-0.78,0.702-1.053c0-0.302-0.295-0.454-0.885-0.454
		v-0.812h4.389v0.812c-0.4,0-0.818,0.103-1.258,0.309c-0.438,0.204-1.061,0.681-1.865,1.427l-0.9,0.832l2.728,4.053
		c0.458,0.684,0.838,1.134,1.137,1.35c0.301,0.217,0.701,0.326,1.205,0.326v0.811H9.083v-0.811c0.741,0,1.112-0.148,1.112-0.446
		c0-0.128-0.151-0.409-0.453-0.849L7.854,53.37L6.844,54.307z"/>
	<path fill="#FFFFFF" d="M20.531,53.487v2.451c0,0.468,0.027,0.773,0.082,0.918c0.053,0.145,0.197,0.263,0.431,0.358
		c0.234,0.095,0.59,0.143,1.067,0.143c0.65,0,1.126-0.08,1.431-0.242c0.304-0.159,0.578-0.443,0.819-0.848
		c0.24-0.404,0.416-0.836,0.523-1.295h0.818l-0.065,3.254h-9.07v-0.811h0.183c0.492,0,0.813-0.093,0.962-0.274
		c0.149-0.183,0.224-0.497,0.224-0.94V50.32c0-0.454-0.078-0.77-0.23-0.947c-0.154-0.178-0.473-0.267-0.955-0.267h-0.183v-0.798
		h8.448l0.146,2.567h-0.818c-0.147-0.448-0.311-0.806-0.49-1.071c-0.182-0.267-0.363-0.437-0.545-0.512
		c-0.184-0.075-0.492-0.115-0.926-0.115h-1.852v3.424h0.922c0.439,0,0.73-0.082,0.875-0.247c0.143-0.165,0.225-0.494,0.244-0.981
		h0.826v3.365h-0.826c0.006-0.063,0.008-0.109,0.008-0.14c0-0.282-0.06-0.537-0.18-0.767c-0.119-0.229-0.426-0.345-0.918-0.345
		H20.531z"/>
	<path fill="#FFFFFF" d="M32.764,53.487v2.451c0,0.468,0.027,0.773,0.081,0.918s0.197,0.263,0.431,0.358
		c0.234,0.095,0.59,0.143,1.068,0.143c0.648,0,1.125-0.08,1.43-0.242c0.305-0.159,0.578-0.443,0.82-0.848
		c0.24-0.404,0.416-0.836,0.522-1.295h0.819l-0.066,3.254h-9.07v-0.811h0.184c0.492,0,0.813-0.093,0.961-0.274
		c0.149-0.183,0.224-0.497,0.224-0.94V50.32c0-0.454-0.077-0.77-0.23-0.947c-0.154-0.178-0.472-0.267-0.954-0.267h-0.184v-0.798
		h8.449l0.146,2.567h-0.819c-0.147-0.448-0.31-0.806-0.489-1.071c-0.182-0.267-0.363-0.437-0.547-0.512
		c-0.182-0.075-0.49-0.115-0.925-0.115h-1.851v3.424h0.922c0.438,0,0.73-0.082,0.874-0.247s0.226-0.494,0.245-0.981h0.826v3.365
		h-0.826c0.005-0.063,0.008-0.109,0.008-0.14c0-0.282-0.061-0.537-0.18-0.767s-0.426-0.345-0.918-0.345H32.764z"/>
	<path fill="#FFFFFF" d="M44.944,53.839v2.362c0,0.454,0.077,0.77,0.23,0.947c0.154,0.178,0.474,0.268,0.962,0.268h0.227v0.811
		h-5.375v-0.811h0.174c0.494,0,0.814-0.093,0.963-0.274c0.148-0.183,0.223-0.497,0.223-0.94v-5.866c0-0.453-0.076-0.77-0.23-0.948
		c-0.154-0.176-0.472-0.267-0.955-0.267h-0.24v-0.812l4.022-0.088c1.005,0,1.781,0.027,2.33,0.081
		c0.55,0.054,1.052,0.201,1.511,0.446c0.458,0.243,0.803,0.566,1.035,0.969c0.23,0.403,0.347,0.841,0.347,1.321
		c0,0.647-0.201,1.202-0.603,1.664c-0.402,0.459-0.905,0.765-1.508,0.913c-0.602,0.149-1.396,0.224-2.381,0.224H44.944z
		 M44.944,52.961h0.483c0.775,0,1.292-0.169,1.551-0.508c0.258-0.34,0.388-0.792,0.388-1.357c0-0.507-0.096-0.918-0.286-1.233
		c-0.19-0.313-0.432-0.519-0.723-0.613c-0.293-0.096-0.764-0.143-1.413-0.143V52.961z"/>
	<path fill="#1467BD" d="M74.658,21.767h-6.081v-0.743h0.493c0.42,0,0.706-0.025,0.86-0.077c0.153-0.051,0.229-0.141,0.229-0.271
		c0-0.188-0.221-0.592-0.662-1.212l-2.351-3.319l-1.39,1.22v2.366c0,0.479,0.111,0.815,0.332,1.005
		c0.221,0.191,0.641,0.287,1.26,0.287v0.743h-5.476v-0.743c0.469,0,0.813-0.049,1.038-0.146c0.223-0.096,0.369-0.234,0.436-0.412
		c0.067-0.178,0.101-0.423,0.101-0.735v-6.881c0-0.313-0.03-0.556-0.092-0.73c-0.063-0.176-0.208-0.313-0.437-0.413
		c-0.229-0.099-0.577-0.149-1.046-0.149v-0.743h5.476v0.743c-0.672,0-1.106,0.097-1.301,0.291c-0.193,0.193-0.291,0.528-0.291,1.001
		v3.295l3.409-2.98c0.237-0.205,0.409-0.38,0.517-0.528c0.107-0.149,0.162-0.313,0.162-0.497c0-0.387-0.369-0.581-1.107-0.581
		v-0.743h5v0.743c-0.389,0.032-0.705,0.078-0.949,0.137c-0.245,0.059-0.483,0.156-0.715,0.291c-0.231,0.135-0.484,0.313-0.76,0.533
		c-0.273,0.221-0.707,0.589-1.3,1.106l-1.147,0.994l3.231,4.603c0.345,0.49,0.628,0.855,0.848,1.094
		c0.222,0.24,0.458,0.413,0.711,0.521c0.253,0.108,0.587,0.169,1.001,0.186V21.767z"/>
	<path fill="#1467BD" d="M84.002,20.063c0,0.409-0.083,0.758-0.25,1.046c-0.166,0.288-0.392,0.5-0.674,0.637
		c-0.283,0.138-0.602,0.207-0.957,0.207c-0.452,0-0.83-0.106-1.131-0.319s-0.482-0.467-0.541-0.763
		c-0.9,0.721-1.804,1.082-2.715,1.082c-0.58,0-1.057-0.141-1.428-0.424c-0.371-0.282-0.559-0.655-0.559-1.118
		c0-0.383,0.101-0.729,0.301-1.039c0.198-0.309,0.49-0.585,0.875-0.827c0.386-0.243,0.844-0.457,1.377-0.642
		c0.533-0.187,1.199-0.381,1.995-0.586v-0.46c0-0.382-0.091-0.683-0.271-0.9c-0.181-0.218-0.514-0.328-0.998-0.328
		c-0.414,0-0.713,0.086-0.896,0.259c-0.183,0.172-0.303,0.434-0.363,0.784c-0.043,0.248-0.121,0.451-0.238,0.61
		c-0.115,0.158-0.356,0.238-0.723,0.238c-0.226,0-0.424-0.064-0.598-0.194c-0.172-0.129-0.258-0.32-0.258-0.573
		c0-0.5,0.271-0.937,0.816-1.308c0.543-0.372,1.377-0.558,2.502-0.558c1.186,0,1.999,0.199,2.443,0.597
		c0.443,0.399,0.666,0.932,0.666,1.6v2.552c0,0.323,0.009,0.56,0.025,0.71c0.016,0.15,0.061,0.265,0.133,0.343
		c0.072,0.079,0.187,0.118,0.344,0.118c0.139,0,0.262-0.073,0.367-0.219c0.104-0.145,0.157-0.32,0.157-0.524H84.002z M80.296,20.127
		v-2.003c-1.022,0.323-1.674,0.639-1.95,0.95c-0.277,0.309-0.416,0.612-0.416,0.909c0,0.247,0.074,0.447,0.226,0.597
		c0.151,0.15,0.363,0.227,0.638,0.227c0.297,0,0.557-0.062,0.784-0.187C79.803,20.496,80.042,20.332,80.296,20.127"/>
	<path fill="#1467BD" d="M89.891,20.329c-0.291,0.608-0.63,1.044-1.019,1.308c-0.388,0.264-0.842,0.396-1.365,0.396
		c-0.634,0-1.102-0.129-1.405-0.389c-0.301-0.258-0.486-0.547-0.557-0.868c-0.07-0.32-0.105-0.68-0.105-1.079v-3.804h-1.219v-0.743
		c0.511,0,0.955-0.096,1.333-0.29c0.376-0.194,0.673-0.455,0.892-0.783c0.219-0.329,0.357-0.682,0.417-1.058h0.661v2.131h2.286
		v0.743h-2.286v3.853c0,0.467,0.032,0.806,0.094,1.013c0.061,0.207,0.214,0.311,0.455,0.311c0.259,0,0.472-0.101,0.639-0.302
		c0.166-0.202,0.328-0.454,0.485-0.755L89.891,20.329z"/>
	<path fill="#1467BD" d="M99.404,21.767h-4.152v-0.743c0.373,0,0.627-0.066,0.768-0.198c0.139-0.132,0.21-0.324,0.21-0.578v-2.714
		c0-0.269-0.017-0.511-0.053-0.726c-0.035-0.215-0.127-0.411-0.278-0.586c-0.15-0.175-0.382-0.263-0.693-0.263
		c-0.254,0-0.511,0.069-0.772,0.206c-0.261,0.137-0.462,0.316-0.602,0.537c-0.151,0.248-0.246,0.486-0.287,0.714
		c-0.039,0.229-0.06,0.505-0.06,0.829v1.389c0,0.377,0.015,0.653,0.044,0.828c0.029,0.175,0.113,0.313,0.25,0.412
		c0.139,0.099,0.364,0.149,0.684,0.149v0.743h-4.232v-0.743c0.36,0,0.626-0.038,0.795-0.113c0.171-0.075,0.274-0.188,0.315-0.335
		c0.04-0.147,0.06-0.391,0.06-0.73v-6.776c0-0.403-0.063-0.674-0.192-0.812c-0.13-0.136-0.455-0.208-0.978-0.214v-0.727l3.255-0.694
		v5.451c0.317-0.333,0.646-0.615,0.989-0.844c0.342-0.229,0.817-0.343,1.425-0.343c0.28,0,0.561,0.04,0.84,0.121
		c0.28,0.08,0.531,0.199,0.755,0.356c0.223,0.155,0.387,0.333,0.488,0.532c0.221,0.393,0.332,0.905,0.332,1.534v2.416
		c0,0.452,0.058,0.762,0.174,0.928c0.115,0.167,0.421,0.25,0.917,0.25V21.767z"/>
	<path fill="#1467BD" d="M115.28,21.767h-4.479v-0.743c0.369,0,0.634-0.041,0.789-0.125c0.156-0.083,0.252-0.199,0.286-0.348
		c0.036-0.147,0.054-0.384,0.054-0.706v-2.447c0-0.355-0.08-0.684-0.238-0.986c-0.159-0.301-0.521-0.452-1.086-0.452
		c-0.404,0-0.755,0.101-1.051,0.304c-0.296,0.202-0.522,0.479-0.683,0.832c-0.158,0.354-0.237,0.747-0.237,1.184v1.566
		c0,0.333,0.02,0.575,0.06,0.723s0.146,0.261,0.312,0.339c0.166,0.078,0.439,0.117,0.814,0.117v0.743h-4.392v-0.743
		c0.36,0,0.62-0.04,0.778-0.121c0.159-0.081,0.256-0.196,0.292-0.348c0.034-0.15,0.052-0.388,0.052-0.71V17.3
		c0-0.565-0.148-0.929-0.444-1.093c-0.295-0.165-0.573-0.247-0.832-0.247c-0.344,0-0.677,0.083-1.001,0.251
		c-0.322,0.166-0.568,0.383-0.735,0.646c-0.118,0.195-0.194,0.385-0.229,0.573c-0.035,0.189-0.053,0.426-0.053,0.711v1.704
		c0,0.333,0.021,0.575,0.061,0.723c0.041,0.147,0.146,0.261,0.319,0.339c0.172,0.078,0.443,0.117,0.815,0.117v0.743h-4.418v-0.743
		c0.365,0,0.628-0.039,0.789-0.117c0.156-0.079,0.255-0.193,0.293-0.343c0.039-0.151,0.057-0.391,0.057-0.719v-2.762
		c0-0.506-0.326-0.759-0.978-0.759h-0.412v-0.743l3.408-0.695c0.044,0.286,0.065,0.695,0.065,1.228
		c0.382-0.383,0.788-0.682,1.215-0.9c0.429-0.218,0.922-0.327,1.482-0.327c0.522,0,1.023,0.103,1.502,0.307
		c0.479,0.205,0.841,0.582,1.082,1.131c0.49-0.582,0.962-0.967,1.414-1.155c0.452-0.188,0.919-0.283,1.397-0.283
		c0.851,0,1.508,0.201,1.97,0.606c0.464,0.403,0.695,1.022,0.695,1.857v2.496c0,0.301,0.015,0.529,0.044,0.683
		c0.03,0.153,0.115,0.274,0.259,0.363c0.143,0.089,0.369,0.133,0.683,0.133h0.281V21.767z"/>
	<path fill="#1467BD" d="M124.334,20.063c0,0.409-0.083,0.758-0.25,1.046c-0.167,0.288-0.393,0.5-0.674,0.637
		c-0.283,0.138-0.603,0.207-0.957,0.207c-0.453,0-0.83-0.106-1.131-0.319c-0.303-0.212-0.482-0.467-0.543-0.763
		c-0.898,0.721-1.803,1.082-2.712,1.082c-0.582,0-1.058-0.141-1.43-0.424c-0.371-0.282-0.557-0.655-0.557-1.118
		c0-0.383,0.099-0.729,0.298-1.039c0.199-0.309,0.491-0.585,0.877-0.827c0.385-0.243,0.844-0.457,1.377-0.642
		c0.532-0.187,1.198-0.381,1.995-0.586v-0.46c0-0.382-0.091-0.683-0.272-0.9c-0.179-0.218-0.512-0.328-0.996-0.328
		c-0.415,0-0.714,0.086-0.896,0.259c-0.185,0.172-0.306,0.434-0.364,0.784c-0.043,0.248-0.123,0.451-0.237,0.61
		c-0.117,0.158-0.357,0.238-0.725,0.238c-0.226,0-0.425-0.064-0.597-0.194c-0.172-0.129-0.258-0.32-0.258-0.573
		c0-0.5,0.271-0.937,0.815-1.308c0.544-0.372,1.378-0.558,2.503-0.558c1.185,0,1.999,0.199,2.442,0.597
		c0.444,0.399,0.667,0.932,0.667,1.6v2.552c0,0.323,0.009,0.56,0.024,0.71c0.017,0.15,0.061,0.265,0.134,0.343
		c0.072,0.079,0.187,0.118,0.343,0.118c0.141,0,0.262-0.073,0.367-0.219c0.105-0.145,0.157-0.32,0.157-0.524H124.334z
		 M120.628,20.127v-2.003c-1.023,0.323-1.674,0.639-1.95,0.95c-0.277,0.309-0.416,0.612-0.416,0.909
		c0,0.247,0.075,0.447,0.226,0.597c0.151,0.15,0.363,0.227,0.638,0.227c0.296,0,0.558-0.062,0.784-0.187
		C120.135,20.496,120.375,20.332,120.628,20.127"/>
	<path fill="#1467BD" d="M133.864,21.767h-4.184v-0.743c0.317,0,0.546-0.041,0.683-0.125c0.137-0.083,0.222-0.206,0.253-0.368
		c0.034-0.161,0.05-0.428,0.05-0.799v-2.286c0-0.458-0.067-0.82-0.202-1.086c-0.135-0.267-0.409-0.4-0.824-0.4
		c-0.564,0-0.985,0.216-1.263,0.65c-0.279,0.434-0.417,0.933-0.417,1.498v1.81c0,0.425,0.062,0.715,0.186,0.872
		c0.124,0.157,0.391,0.234,0.8,0.234v0.743h-4.266v-0.743c0.352,0,0.609-0.031,0.776-0.093c0.167-0.062,0.278-0.172,0.332-0.331
		s0.081-0.411,0.081-0.755v-2.609c0-0.377-0.073-0.623-0.218-0.739c-0.146-0.116-0.469-0.173-0.972-0.173v-0.743l3.143-0.695
		c0.049,0.313,0.073,0.603,0.073,0.872c0,0.07-0.001,0.131-0.004,0.182c-0.003,0.052-0.004,0.109-0.004,0.174
		c0.338-0.361,0.691-0.655,1.058-0.884c0.366-0.229,0.824-0.343,1.373-0.343c0.464,0,0.879,0.083,1.248,0.25
		s0.658,0.419,0.867,0.759c0.211,0.339,0.315,0.749,0.315,1.228v2.722c0,0.452,0.061,0.762,0.183,0.928
		c0.12,0.167,0.432,0.25,0.933,0.25V21.767z"/>
	<path fill="#1467BD" d="M143.935,21.67c-1.142,0.048-2.184,0.169-3.126,0.364c-0.074-0.163-0.124-0.444-0.145-0.849
		c-0.689,0.564-1.445,0.849-2.27,0.849c-0.635,0-1.224-0.165-1.765-0.494c-0.542-0.328-0.971-0.776-1.293-1.344
		c-0.319-0.568-0.48-1.187-0.48-1.854c0-0.414,0.07-0.826,0.211-1.235c0.14-0.41,0.36-0.785,0.658-1.127
		c0.299-0.341,0.669-0.61,1.11-0.803c0.442-0.194,0.945-0.291,1.509-0.291c0.416,0,0.771,0.051,1.067,0.153s0.533,0.219,0.71,0.351
		c0.179,0.133,0.359,0.29,0.542,0.473v-2.649c0-0.361-0.03-0.619-0.089-0.775c-0.06-0.157-0.172-0.256-0.335-0.299
		c-0.165-0.042-0.432-0.07-0.805-0.081v-0.743l3.313-0.694v9.044c0,0.388,0.017,0.657,0.052,0.808
		c0.035,0.151,0.134,0.26,0.296,0.327c0.16,0.068,0.44,0.109,0.839,0.125V21.67z M140.664,20.143v-3.271
		c-0.226-0.274-0.496-0.524-0.808-0.75c-0.313-0.226-0.685-0.339-1.115-0.339c-0.264,0-0.511,0.073-0.743,0.218
		c-0.23,0.145-0.416,0.331-0.557,0.557c-0.237,0.372-0.354,0.999-0.354,1.881c0,0.895,0.168,1.567,0.504,2.02
		c0.337,0.452,0.754,0.678,1.257,0.678c0.36,0,0.696-0.089,1.009-0.266C140.168,20.692,140.438,20.45,140.664,20.143"/>
	<path fill="#1467BD" d="M153.65,21.718c-0.156,0.012-0.428,0.028-0.816,0.053c-0.388,0.025-0.822,0.059-1.305,0.105
		c-0.481,0.046-0.868,0.098-1.158,0.158v-1.179c-0.694,0.796-1.526,1.195-2.495,1.195c-0.706,0-1.228-0.15-1.567-0.452
		c-0.339-0.302-0.548-0.635-0.629-0.998c-0.082-0.363-0.121-0.752-0.121-1.167V17.05c0-0.317-0.021-0.551-0.057-0.699
		c-0.038-0.147-0.138-0.261-0.3-0.338c-0.16-0.078-0.428-0.117-0.8-0.117v-0.744h3.238v4.45c0,0.915,0.354,1.373,1.061,1.373
		c0.403,0,0.744-0.144,1.024-0.432s0.495-0.564,0.646-0.828V17.05c0-0.333-0.02-0.574-0.061-0.719
		c-0.04-0.146-0.145-0.255-0.311-0.327c-0.168-0.073-0.443-0.109-0.831-0.109v-0.744h3.286v4.862c0,0.253,0.023,0.441,0.073,0.565
		c0.047,0.123,0.157,0.219,0.329,0.286c0.173,0.067,0.438,0.104,0.793,0.109V21.718z"/>
	<path fill="#1467BD" d="M71.734,31.154l-0.088,3.602h-9.756v-0.742c0.674,0,1.105-0.098,1.301-0.291
		c0.193-0.193,0.29-0.527,0.29-1.002v-6.88c0-0.312-0.032-0.556-0.093-0.73c-0.062-0.176-0.208-0.313-0.436-0.413
		c-0.229-0.099-0.583-0.148-1.063-0.148v-0.744h9.086l0.145,2.843h-0.742c-0.168-0.63-0.359-1.081-0.578-1.354
		c-0.218-0.271-0.463-0.438-0.734-0.5c-0.271-0.062-0.68-0.092-1.225-0.092h-2.051v3.868h1.114c0.382,0,0.668-0.033,0.856-0.102
		c0.188-0.066,0.32-0.194,0.396-0.383s0.127-0.485,0.153-0.889h0.775v3.643h-0.742c-0.022-0.404-0.076-0.701-0.162-0.893
		s-0.223-0.318-0.408-0.384s-0.47-0.097-0.852-0.097h-1.131v2.576c0,0.43,0.011,0.746,0.033,0.945
		c0.021,0.199,0.078,0.365,0.174,0.496c0.094,0.132,0.246,0.228,0.459,0.287c0.213,0.059,0.516,0.089,0.909,0.089h0.88
		c0.371,0,0.726-0.048,1.063-0.142c0.336-0.095,0.666-0.337,0.989-0.727c0.323-0.391,0.549-1.003,0.679-1.838H71.734z"/>
	<path fill="#1467BD" d="M81.871,34.756h-4.184v-0.742c0.317,0,0.545-0.041,0.682-0.125c0.139-0.084,0.223-0.207,0.256-0.367
		c0.031-0.162,0.047-0.429,0.047-0.801v-2.285c0-0.458-0.066-0.82-0.201-1.086c-0.135-0.267-0.409-0.4-0.824-0.4
		c-0.565,0-0.986,0.217-1.264,0.65s-0.416,0.933-0.416,1.498v1.809c0,0.426,0.063,0.717,0.186,0.873
		c0.124,0.156,0.391,0.234,0.8,0.234v0.742h-4.264v-0.742c0.35,0,0.606-0.031,0.775-0.094c0.167-0.063,0.276-0.172,0.331-0.33
		c0.054-0.159,0.08-0.41,0.08-0.756v-2.608c0-0.377-0.072-0.623-0.218-0.738c-0.146-0.116-0.469-0.174-0.969-0.174V28.57
		l3.142-0.695c0.049,0.313,0.072,0.604,0.072,0.873c0,0.07,0,0.131-0.004,0.182c-0.002,0.051-0.005,0.107-0.005,0.174
		c0.339-0.361,0.692-0.656,1.059-0.885s0.823-0.344,1.373-0.344c0.463,0,0.879,0.084,1.247,0.251
		c0.369,0.167,0.658,0.42,0.869,0.759c0.21,0.34,0.315,0.748,0.315,1.229v2.721c0,0.452,0.06,0.762,0.181,0.93
		c0.121,0.166,0.432,0.25,0.934,0.25V34.756z"/>
	<path fill="#1467BD" d="M90.31,28.885c-0.253,0-0.443,0.078-0.569,0.234s-0.306,0.463-0.537,0.921l-2.431,4.902h-1.131
		l-2.778-5.347c-0.166-0.328-0.29-0.522-0.371-0.581c-0.082-0.06-0.27-0.103-0.565-0.13v-0.742h3.949v0.742
		c-0.286,0.011-0.494,0.036-0.627,0.078c-0.131,0.039-0.196,0.124-0.196,0.254c0,0.091,0.054,0.244,0.16,0.46l1.688,3.279
		l1.607-3.231c0.107-0.231,0.161-0.395,0.161-0.492c0-0.15-0.063-0.246-0.188-0.287c-0.128-0.04-0.333-0.061-0.619-0.061v-0.742
		h2.447V28.885z"/>
	<path fill="#1467BD" d="M95.285,34.756h-4.386v-0.742h0.233c0.313,0,0.541-0.043,0.683-0.129c0.143-0.086,0.229-0.208,0.263-0.363
		c0.033-0.156,0.05-0.386,0.05-0.688v-2.398c0-0.333-0.021-0.57-0.062-0.711c-0.041-0.14-0.145-0.242-0.314-0.307
		s-0.454-0.1-0.853-0.104V28.57l3.312-0.695v4.959c0,0.452,0.056,0.762,0.17,0.93c0.112,0.166,0.414,0.25,0.904,0.25V34.756z
		 M94.371,24.718c0,0.323-0.113,0.6-0.343,0.828c-0.229,0.229-0.504,0.343-0.828,0.343c-0.316,0-0.593-0.117-0.827-0.352
		c-0.233-0.234-0.352-0.507-0.352-0.819c0-0.323,0.116-0.6,0.348-0.832s0.51-0.347,0.831-0.347c0.329,0,0.607,0.113,0.832,0.339
		C94.26,24.104,94.371,24.384,94.371,24.718"/>
	<path fill="#1467BD" d="M102.973,29.152c0,0.313-0.095,0.558-0.286,0.738s-0.416,0.271-0.675,0.271
		c-0.307,0-0.576-0.15-0.809-0.452c-0.106-0.135-0.195-0.232-0.266-0.291c-0.069-0.059-0.169-0.088-0.298-0.088
		c-0.421,0-0.748,0.227-0.981,0.682c-0.234,0.455-0.353,0.928-0.353,1.417v1.405c0,0.452,0.058,0.762,0.175,0.93
		c0.115,0.166,0.421,0.25,0.915,0.25h0.429v0.742H95.81v-0.742h0.42c0.452,0,0.729-0.086,0.832-0.259
		c0.102-0.173,0.153-0.479,0.153-0.921v-2.357c0-0.361-0.037-0.619-0.109-0.775c-0.073-0.156-0.203-0.26-0.392-0.312
		c-0.188-0.051-0.49-0.076-0.904-0.076V28.57l3.149-0.695c0.082,0.274,0.156,0.859,0.228,1.754c0.148-0.318,0.348-0.609,0.591-0.873
		c0.246-0.264,0.521-0.477,0.825-0.638c0.305-0.161,0.615-0.243,0.933-0.243c0.442,0,0.792,0.125,1.051,0.372
		C102.844,28.495,102.973,28.796,102.973,29.152"/>
	<path fill="#1467BD" d="M111.559,31.429c0,0.733-0.179,1.37-0.534,1.914c-0.354,0.544-0.836,0.96-1.441,1.247
		c-0.605,0.29-1.27,0.433-1.991,0.433c-0.678,0-1.32-0.131-1.927-0.396c-0.604-0.263-1.101-0.665-1.484-1.203
		c-0.385-0.539-0.578-1.197-0.578-1.979c0-1.168,0.398-2.056,1.195-2.662c0.796-0.605,1.744-0.908,2.843-0.908
		c0.817,0,1.523,0.162,2.116,0.485c0.592,0.323,1.04,0.757,1.345,1.3C111.405,30.205,111.559,30.794,111.559,31.429 M109.328,31.381
		c0-0.916-0.121-1.604-0.362-2.068c-0.243-0.462-0.715-0.693-1.414-0.693c-0.446,0-0.796,0.1-1.045,0.303
		c-0.251,0.201-0.426,0.514-0.526,0.937c-0.099,0.423-0.148,0.971-0.148,1.644c0,0.829,0.108,1.499,0.331,2.011
		c0.22,0.511,0.702,0.767,1.445,0.767c0.49,0,0.861-0.141,1.117-0.424c0.257-0.282,0.421-0.633,0.493-1.049
		C109.292,32.389,109.328,31.914,109.328,31.381"/>
	<path fill="#1467BD" d="M121.766,34.756h-4.184v-0.742c0.317,0,0.545-0.041,0.683-0.125s0.222-0.207,0.253-0.367
		c0.034-0.162,0.05-0.429,0.05-0.801v-2.285c0-0.458-0.067-0.82-0.202-1.086c-0.136-0.267-0.409-0.4-0.824-0.4
		c-0.564,0-0.985,0.217-1.263,0.65c-0.278,0.434-0.416,0.933-0.416,1.498v1.809c0,0.426,0.061,0.717,0.186,0.873
		c0.123,0.156,0.39,0.234,0.8,0.234v0.742h-4.265v-0.742c0.351,0,0.607-0.031,0.775-0.094c0.167-0.063,0.277-0.172,0.33-0.33
		c0.055-0.159,0.082-0.41,0.082-0.756v-2.608c0-0.377-0.073-0.623-0.218-0.738c-0.146-0.116-0.469-0.174-0.97-0.174V28.57
		l3.142-0.695c0.048,0.313,0.072,0.604,0.072,0.873c0,0.07-0.001,0.131-0.004,0.182c-0.004,0.051-0.005,0.107-0.005,0.174
		c0.34-0.361,0.692-0.656,1.06-0.885c0.366-0.229,0.823-0.344,1.372-0.344c0.463,0,0.879,0.084,1.248,0.251s0.657,0.42,0.868,0.759
		c0.209,0.34,0.315,0.748,0.315,1.229v2.721c0,0.452,0.06,0.762,0.182,0.93c0.12,0.166,0.432,0.25,0.933,0.25V34.756z"/>
	<path fill="#1467BD" d="M137.658,34.756h-4.48v-0.742c0.37,0,0.635-0.041,0.79-0.125c0.157-0.084,0.251-0.199,0.286-0.348
		c0.037-0.148,0.054-0.384,0.054-0.707v-2.446c0-0.356-0.08-0.685-0.237-0.986c-0.16-0.301-0.522-0.452-1.087-0.452
		c-0.404,0-0.754,0.102-1.05,0.304c-0.297,0.202-0.523,0.479-0.683,0.831c-0.158,0.354-0.238,0.748-0.238,1.184v1.566
		c0,0.334,0.02,0.575,0.06,0.724c0.042,0.147,0.145,0.261,0.312,0.339s0.439,0.117,0.814,0.117v0.742h-4.393v-0.742
		c0.361,0,0.621-0.04,0.78-0.121c0.158-0.082,0.255-0.197,0.291-0.348c0.033-0.15,0.052-0.388,0.052-0.711V30.29
		c0-0.565-0.149-0.929-0.444-1.094s-0.572-0.247-0.832-0.247c-0.344,0-0.678,0.084-1.001,0.251
		c-0.322,0.167-0.567,0.382-0.734,0.646c-0.119,0.194-0.195,0.386-0.23,0.574c-0.035,0.188-0.053,0.425-0.053,0.711v1.703
		c0,0.334,0.021,0.575,0.061,0.724c0.04,0.147,0.146,0.261,0.318,0.339c0.173,0.078,0.444,0.117,0.816,0.117v0.742h-4.419v-0.742
		c0.367,0,0.629-0.039,0.789-0.117c0.158-0.078,0.257-0.192,0.294-0.344c0.039-0.15,0.057-0.391,0.057-0.719v-2.762
		c0-0.506-0.325-0.759-0.977-0.759h-0.412V28.57l3.407-0.695c0.044,0.286,0.065,0.695,0.065,1.229
		c0.381-0.383,0.787-0.683,1.215-0.9c0.429-0.219,0.923-0.328,1.482-0.328c0.522,0,1.023,0.103,1.502,0.307
		c0.479,0.205,0.841,0.582,1.083,1.132c0.489-0.581,0.961-0.967,1.413-1.155c0.452-0.188,0.918-0.283,1.397-0.283
		c0.851,0,1.507,0.202,1.971,0.606c0.462,0.403,0.694,1.022,0.694,1.857v2.495c0,0.302,0.015,0.529,0.044,0.683
		s0.116,0.274,0.258,0.364c0.144,0.088,0.371,0.133,0.683,0.133h0.282V34.756z"/>
	<path fill="#1467BD" d="M145.604,31.203h-4.966c0.005,0.102,0.021,0.32,0.045,0.654c0.024,0.334,0.099,0.676,0.227,1.025
		c0.127,0.35,0.344,0.646,0.654,0.885c0.309,0.239,0.725,0.359,1.247,0.359c0.285,0,0.631-0.073,1.035-0.219
		c0.403-0.145,0.753-0.426,1.049-0.84l0.629,0.428c-0.635,1.018-1.644,1.526-3.027,1.526c-0.619,0-1.184-0.089-1.692-0.267
		c-0.508-0.178-0.941-0.424-1.297-0.742c-0.354-0.318-0.626-0.691-0.815-1.123c-0.188-0.43-0.282-0.894-0.282-1.389
		c0-0.652,0.157-1.254,0.473-1.809c0.315-0.556,0.766-0.998,1.353-1.326c0.586-0.328,1.256-0.492,2.011-0.492
		c0.737,0,1.36,0.159,1.87,0.477c0.509,0.318,0.885,0.73,1.127,1.236S145.604,30.632,145.604,31.203 M143.603,30.46
		c0-1.228-0.484-1.841-1.453-1.841c-0.468,0-0.828,0.169-1.079,0.508c-0.25,0.34-0.388,0.784-0.415,1.333H143.603z"/>
	<path fill="#1467BD" d="M155.71,34.756h-4.184v-0.742c0.318,0,0.545-0.041,0.683-0.125c0.137-0.084,0.221-0.207,0.253-0.367
		c0.032-0.162,0.05-0.429,0.05-0.801v-2.285c0-0.458-0.068-0.82-0.202-1.086c-0.136-0.267-0.409-0.4-0.824-0.4
		c-0.565,0-0.986,0.217-1.265,0.65c-0.276,0.434-0.414,0.933-0.414,1.498v1.809c0,0.426,0.061,0.717,0.185,0.873
		c0.123,0.156,0.391,0.234,0.8,0.234v0.742h-4.265v-0.742c0.351,0,0.609-0.031,0.775-0.094c0.167-0.063,0.277-0.172,0.331-0.33
		c0.054-0.159,0.08-0.41,0.08-0.756v-2.608c0-0.377-0.072-0.623-0.217-0.738c-0.146-0.116-0.47-0.174-0.97-0.174V28.57l3.142-0.695
		c0.049,0.313,0.073,0.604,0.073,0.873c0,0.07-0.002,0.131-0.005,0.182s-0.003,0.107-0.003,0.174
		c0.339-0.361,0.691-0.656,1.058-0.885c0.367-0.229,0.823-0.344,1.373-0.344c0.463,0,0.879,0.084,1.248,0.251
		c0.368,0.167,0.657,0.42,0.867,0.759c0.21,0.34,0.316,0.748,0.316,1.229v2.721c0,0.452,0.061,0.762,0.182,0.93
		c0.12,0.166,0.431,0.25,0.933,0.25V34.756z"/>
	<path fill="#1467BD" d="M161.896,33.319c-0.293,0.608-0.631,1.044-1.019,1.308c-0.388,0.265-0.843,0.396-1.365,0.396
		c-0.636,0-1.104-0.129-1.404-0.388c-0.302-0.258-0.487-0.547-0.558-0.867s-0.104-0.68-0.104-1.078v-3.805h-1.22v-0.742
		c0.511,0,0.956-0.098,1.333-0.291c0.376-0.194,0.673-0.455,0.892-0.783c0.218-0.329,0.355-0.681,0.415-1.058h0.663v2.132h2.285
		v0.742h-2.285v3.853c0,0.468,0.03,0.806,0.092,1.015c0.062,0.206,0.215,0.31,0.458,0.31c0.258,0,0.471-0.101,0.638-0.302
		c0.167-0.202,0.328-0.454,0.484-0.756L161.896,33.319z"/>
	<path fill="#1467BD" d="M171.014,33.052c0,0.41-0.084,0.759-0.25,1.046c-0.167,0.289-0.392,0.502-0.675,0.639
		c-0.283,0.138-0.602,0.206-0.958,0.206c-0.451,0-0.829-0.106-1.13-0.319c-0.302-0.213-0.482-0.467-0.541-0.763
		c-0.898,0.722-1.804,1.082-2.714,1.082c-0.58,0-1.057-0.142-1.43-0.425c-0.371-0.282-0.557-0.654-0.557-1.117
		c0-0.383,0.1-0.729,0.299-1.039c0.2-0.309,0.492-0.585,0.876-0.828c0.385-0.242,0.844-0.455,1.378-0.642
		c0.531-0.185,1.197-0.38,1.994-0.585v-0.461c0-0.381-0.091-0.682-0.271-0.9c-0.182-0.218-0.514-0.326-0.998-0.326
		c-0.414,0-0.713,0.086-0.896,0.258c-0.184,0.172-0.305,0.434-0.364,0.784c-0.042,0.247-0.122,0.45-0.238,0.608
		c-0.114,0.159-0.356,0.238-0.722,0.238c-0.227,0-0.425-0.063-0.599-0.193c-0.172-0.129-0.258-0.32-0.258-0.573
		c0-0.501,0.271-0.937,0.815-1.308c0.543-0.372,1.378-0.559,2.504-0.559c1.184,0,1.999,0.199,2.442,0.598
		c0.444,0.398,0.667,0.932,0.667,1.6v2.552c0,0.323,0.008,0.561,0.024,0.711c0.016,0.151,0.06,0.265,0.132,0.343
		c0.074,0.078,0.188,0.117,0.344,0.117c0.14,0,0.263-0.072,0.368-0.218c0.104-0.146,0.157-0.319,0.157-0.525H171.014z
		 M167.307,33.117v-2.004c-1.022,0.324-1.674,0.641-1.95,0.949c-0.277,0.311-0.416,0.613-0.416,0.908
		c0,0.248,0.074,0.448,0.226,0.599s0.365,0.226,0.639,0.226c0.296,0,0.557-0.062,0.782-0.186
		C166.813,33.486,167.054,33.322,167.307,33.117"/>
	<path fill="#1467BD" d="M175.875,34.756h-4.644v-0.742h0.347c0.313,0,0.541-0.043,0.683-0.129c0.144-0.086,0.23-0.208,0.262-0.363
		c0.032-0.156,0.051-0.386,0.051-0.688v-6.881c0-0.387-0.092-0.635-0.271-0.743c-0.181-0.107-0.537-0.161-1.07-0.161v-0.743
		l3.425-0.694v9.222c0,0.302,0.014,0.529,0.044,0.683c0.029,0.153,0.116,0.274,0.259,0.364c0.143,0.088,0.37,0.133,0.682,0.133
		h0.234V34.756z"/>
	<path fill="#228B22" d="M71.734,44.257l-0.088,3.602h-9.756v-0.744c0.674,0,1.105-0.096,1.301-0.29
		c0.193-0.194,0.29-0.526,0.29-1.001v-6.88c0-0.313-0.032-0.558-0.093-0.731c-0.062-0.175-0.208-0.313-0.436-0.412
		c-0.229-0.101-0.583-0.149-1.063-0.149v-0.742h9.086l0.145,2.841h-0.742c-0.168-0.63-0.359-1.08-0.578-1.352
		c-0.218-0.271-0.463-0.439-0.734-0.501s-0.68-0.093-1.225-0.093h-2.051v3.868h1.114c0.382,0,0.668-0.034,0.856-0.101
		c0.188-0.067,0.32-0.195,0.396-0.385c0.075-0.187,0.127-0.484,0.153-0.889h0.775v3.644h-0.742
		c-0.022-0.403-0.076-0.702-0.162-0.892c-0.086-0.191-0.223-0.32-0.408-0.385s-0.47-0.097-0.852-0.097h-1.131v2.576
		c0,0.432,0.011,0.746,0.033,0.945c0.021,0.199,0.078,0.364,0.174,0.496c0.094,0.132,0.246,0.229,0.459,0.286
		c0.213,0.06,0.516,0.09,0.909,0.09h0.88c0.371,0,0.726-0.047,1.063-0.142c0.336-0.095,0.666-0.336,0.989-0.727
		s0.549-1.003,0.679-1.837H71.734z"/>
	<path fill="#228B22" d="M82.113,47.761c-1.142,0.049-2.184,0.171-3.125,0.364c-0.076-0.163-0.125-0.445-0.146-0.849
		c-0.688,0.566-1.446,0.849-2.27,0.849c-0.635,0-1.223-0.165-1.765-0.492c-0.54-0.329-0.972-0.777-1.292-1.345
		c-0.32-0.568-0.48-1.186-0.48-1.854c0-0.415,0.07-0.827,0.211-1.236c0.139-0.409,0.358-0.785,0.657-1.127
		c0.3-0.342,0.669-0.609,1.11-0.803c0.442-0.194,0.945-0.292,1.511-0.292c0.413,0,0.769,0.053,1.065,0.154
		c0.297,0.103,0.533,0.22,0.711,0.352s0.357,0.289,0.541,0.474v-2.65c0-0.36-0.029-0.619-0.088-0.774
		c-0.061-0.157-0.171-0.256-0.336-0.301c-0.164-0.043-0.432-0.069-0.804-0.08v-0.742l3.312-0.694v9.044
		c0,0.389,0.017,0.657,0.053,0.808c0.034,0.151,0.133,0.261,0.295,0.327c0.16,0.068,0.441,0.109,0.84,0.127V47.761z M78.842,46.235
		v-3.271c-0.226-0.274-0.496-0.524-0.808-0.751c-0.313-0.226-0.683-0.34-1.114-0.34c-0.264,0-0.512,0.073-0.743,0.219
		s-0.417,0.331-0.558,0.558c-0.237,0.37-0.355,0.999-0.355,1.881c0,0.895,0.169,1.567,0.506,2.021
		c0.336,0.451,0.755,0.678,1.256,0.678c0.36,0,0.696-0.09,1.009-0.267C78.346,46.784,78.616,46.542,78.842,46.235"/>
	<path fill="#228B22" d="M91.828,47.81c-0.156,0.01-0.428,0.028-0.815,0.053s-0.822,0.059-1.305,0.104
		c-0.481,0.045-0.868,0.1-1.158,0.158v-1.179c-0.695,0.796-1.526,1.194-2.495,1.194c-0.706,0-1.228-0.15-1.567-0.452
		c-0.339-0.301-0.55-0.634-0.63-0.997c-0.081-0.363-0.121-0.753-0.121-1.167v-2.382c0-0.318-0.02-0.551-0.057-0.699
		s-0.138-0.261-0.299-0.34c-0.161-0.077-0.428-0.117-0.799-0.117v-0.742h3.237v4.449c0,0.916,0.354,1.373,1.059,1.373
		c0.403,0,0.746-0.144,1.025-0.433c0.279-0.286,0.495-0.563,0.646-0.826v-2.665c0-0.334-0.02-0.574-0.062-0.72
		c-0.039-0.146-0.144-0.253-0.311-0.327c-0.167-0.072-0.444-0.109-0.83-0.109v-0.742h3.286v4.861c0,0.253,0.023,0.442,0.072,0.565
		c0.048,0.124,0.158,0.219,0.332,0.287c0.171,0.067,0.435,0.103,0.79,0.108V47.81z"/>
	<path fill="#228B22" d="M99.865,46.218c-0.652,1.271-1.699,1.907-3.142,1.907c-0.674,0-1.31-0.138-1.911-0.412
		c-0.6-0.274-1.081-0.673-1.445-1.195c-0.363-0.521-0.545-1.133-0.545-1.834c0-0.483,0.098-0.946,0.295-1.388
		c0.196-0.441,0.48-0.841,0.852-1.196s0.812-0.631,1.32-0.827s1.054-0.296,1.636-0.296c0.743,0,1.397,0.147,1.962,0.441
		c0.566,0.294,0.849,0.698,0.849,1.215c0,0.237-0.09,0.439-0.267,0.605c-0.178,0.167-0.383,0.25-0.614,0.25
		c-0.22,0-0.391-0.051-0.509-0.152c-0.118-0.103-0.196-0.207-0.233-0.316c-0.039-0.105-0.091-0.298-0.162-0.572
		c-0.069-0.264-0.186-0.451-0.347-0.562c-0.162-0.11-0.388-0.165-0.679-0.165c-0.489,0-0.925,0.182-1.304,0.544
		c-0.381,0.364-0.57,1.044-0.57,2.04c0,0.533,0.077,1.023,0.23,1.47s0.396,0.801,0.727,1.063c0.331,0.261,0.737,0.392,1.216,0.392
		c0.532,0,0.939-0.132,1.219-0.396c0.281-0.264,0.528-0.573,0.744-0.929L99.865,46.218z"/>
	<path fill="#228B22" d="M109.233,46.154c0,0.409-0.085,0.759-0.251,1.046c-0.167,0.287-0.392,0.501-0.674,0.638
		c-0.284,0.138-0.603,0.206-0.958,0.206c-0.453,0-0.828-0.105-1.13-0.319c-0.302-0.212-0.482-0.467-0.542-0.763
		c-0.898,0.721-1.804,1.082-2.714,1.082c-0.581,0-1.057-0.141-1.429-0.424s-0.558-0.655-0.558-1.118c0-0.383,0.1-0.729,0.299-1.038
		c0.199-0.311,0.491-0.586,0.877-0.827c0.385-0.244,0.843-0.457,1.376-0.644c0.534-0.186,1.198-0.38,1.994-0.585v-0.461
		c0-0.381-0.089-0.683-0.271-0.9c-0.18-0.217-0.512-0.326-0.996-0.326c-0.415,0-0.714,0.086-0.896,0.259
		c-0.184,0.172-0.304,0.433-0.364,0.782c-0.043,0.247-0.121,0.451-0.237,0.609c-0.115,0.16-0.355,0.239-0.724,0.239
		c-0.226,0-0.426-0.064-0.597-0.194c-0.173-0.129-0.259-0.319-0.259-0.572c0-0.502,0.272-0.938,0.816-1.31
		c0.543-0.371,1.378-0.558,2.503-0.558c1.185,0,2,0.199,2.442,0.599c0.445,0.398,0.668,0.932,0.668,1.599v2.553
		c0,0.322,0.007,0.56,0.023,0.71c0.016,0.15,0.061,0.266,0.133,0.343c0.073,0.078,0.188,0.118,0.344,0.118
		c0.139,0,0.262-0.073,0.367-0.219c0.104-0.145,0.158-0.32,0.158-0.524H109.233z M105.524,46.218v-2.001
		c-1.022,0.321-1.672,0.639-1.949,0.949c-0.277,0.308-0.416,0.611-0.416,0.908c0,0.247,0.075,0.446,0.226,0.597
		c0.151,0.151,0.364,0.227,0.639,0.227c0.297,0,0.558-0.063,0.783-0.187S105.272,46.423,105.524,46.218"/>
	<path fill="#228B22" d="M115.121,46.42c-0.293,0.609-0.631,1.046-1.02,1.309c-0.388,0.264-0.844,0.396-1.364,0.396
		c-0.636,0-1.104-0.13-1.405-0.389c-0.301-0.259-0.487-0.547-0.558-0.869c-0.07-0.318-0.104-0.679-0.104-1.076v-3.805h-1.219v-0.742
		c0.511,0,0.956-0.098,1.331-0.291c0.377-0.193,0.674-0.455,0.893-0.783c0.219-0.329,0.358-0.681,0.416-1.059h0.663v2.133h2.285
		v0.742h-2.285v3.853c0,0.468,0.031,0.806,0.092,1.014c0.062,0.207,0.215,0.312,0.457,0.312c0.259,0,0.472-0.102,0.637-0.304
		c0.168-0.202,0.33-0.453,0.485-0.755L115.121,46.42z"/>
	<path fill="#228B22" d="M120.055,47.858h-4.385v-0.744h0.232c0.313,0,0.54-0.043,0.683-0.128c0.144-0.087,0.23-0.208,0.263-0.364
		c0.032-0.154,0.049-0.384,0.049-0.687v-2.397c0-0.334-0.021-0.571-0.061-0.711c-0.04-0.141-0.146-0.242-0.314-0.308
		c-0.169-0.064-0.453-0.1-0.852-0.104v-0.743l3.311-0.695v4.959c0,0.452,0.057,0.764,0.17,0.929c0.112,0.167,0.414,0.25,0.904,0.25
		V47.858z M119.141,37.819c0,0.323-0.113,0.599-0.342,0.828s-0.506,0.343-0.829,0.343c-0.316,0-0.593-0.116-0.827-0.351
		s-0.351-0.508-0.351-0.82c0-0.323,0.115-0.601,0.347-0.831c0.231-0.231,0.51-0.348,0.831-0.348c0.329,0,0.607,0.113,0.833,0.339
		C119.029,37.206,119.141,37.485,119.141,37.819"/>
	<path fill="#228B22" d="M129.084,44.53c0,0.732-0.179,1.371-0.533,1.914c-0.356,0.544-0.836,0.96-1.442,1.248
		c-0.605,0.289-1.269,0.433-1.99,0.433c-0.679,0-1.319-0.133-1.926-0.396c-0.606-0.263-1.102-0.665-1.487-1.202
		c-0.385-0.539-0.576-1.198-0.576-1.979c0-1.169,0.398-2.056,1.195-2.661s1.745-0.909,2.843-0.909c0.818,0,1.523,0.163,2.116,0.485
		c0.591,0.323,1.039,0.756,1.344,1.3C128.931,43.306,129.084,43.896,129.084,44.53 M126.854,44.483c0-0.916-0.122-1.604-0.362-2.068
		c-0.244-0.462-0.714-0.694-1.415-0.694c-0.446,0-0.793,0.101-1.044,0.303s-0.426,0.514-0.525,0.937
		c-0.1,0.422-0.149,0.97-0.149,1.644c0,0.828,0.11,1.499,0.331,2.012c0.22,0.511,0.702,0.767,1.444,0.767
		c0.49,0,0.864-0.142,1.119-0.424c0.256-0.283,0.421-0.634,0.494-1.051C126.818,45.49,126.854,45.015,126.854,44.483"/>
	<path fill="#228B22" d="M139.291,47.858h-4.184v-0.744c0.318,0,0.546-0.041,0.683-0.124c0.138-0.084,0.223-0.206,0.255-0.368
		c0.031-0.161,0.049-0.428,0.049-0.799v-2.285c0-0.458-0.068-0.82-0.202-1.087c-0.136-0.267-0.41-0.4-0.824-0.4
		c-0.565,0-0.986,0.217-1.265,0.65c-0.277,0.435-0.414,0.933-0.414,1.499v1.809c0,0.425,0.061,0.717,0.184,0.872
		c0.125,0.156,0.391,0.233,0.801,0.233v0.744h-4.265v-0.744c0.351,0,0.608-0.029,0.775-0.092c0.167-0.062,0.277-0.173,0.331-0.331
		s0.08-0.411,0.08-0.756v-2.607c0-0.377-0.072-0.623-0.217-0.739c-0.146-0.116-0.47-0.174-0.97-0.174v-0.743l3.142-0.695
		c0.05,0.313,0.073,0.604,0.073,0.872c0,0.071-0.002,0.132-0.005,0.183c-0.002,0.051-0.004,0.109-0.004,0.174
		c0.34-0.361,0.691-0.655,1.059-0.885c0.367-0.229,0.823-0.344,1.372-0.344c0.464,0,0.88,0.084,1.248,0.252
		c0.369,0.166,0.658,0.419,0.868,0.758c0.21,0.34,0.315,0.749,0.315,1.228v2.722c0,0.452,0.061,0.764,0.181,0.929
		c0.121,0.167,0.433,0.25,0.934,0.25V47.858z"/>
	<path fill="#228B22" d="M71.703,52.812c0,0.899-0.277,1.582-0.832,2.047c-0.555,0.467-1.208,0.766-1.959,0.897
		s-1.541,0.197-2.37,0.197h-0.728v2.859c0,0.323,0.036,0.572,0.105,0.751c0.07,0.179,0.221,0.313,0.453,0.404
		c0.23,0.091,0.584,0.137,1.059,0.137v0.744h-5.509v-0.744c0.469,0,0.814-0.048,1.037-0.145c0.224-0.098,0.37-0.234,0.437-0.411
		c0.068-0.18,0.102-0.424,0.102-0.736v-6.913c0-0.313-0.032-0.556-0.098-0.731c-0.064-0.174-0.21-0.312-0.436-0.412
		c-0.227-0.099-0.573-0.148-1.042-0.148v-0.76l3.126-0.08c0.161-0.005,0.338-0.009,0.527-0.012c0.191-0.003,0.344-0.006,0.457-0.008
		c0.113-0.004,0.279-0.005,0.501-0.005c0.274,0,0.479,0.003,0.613,0.009c0.642,0.026,1.257,0.088,1.851,0.185
		c0.592,0.098,1.189,0.371,1.796,0.819C71.4,51.206,71.703,51.892,71.703,52.812 M69.215,52.828c0-0.872-0.254-1.455-0.762-1.748
		c-0.51-0.292-1.18-0.439-2.008-0.439c-0.15,0-0.361,0.005-0.631,0.017v4.4h0.744c0.792,0,1.432-0.136,1.922-0.408
		C68.971,54.378,69.215,53.771,69.215,52.828"/>
	<path fill="#228B22" d="M79.473,55.243c0,0.312-0.096,0.559-0.287,0.739c-0.191,0.18-0.416,0.271-0.674,0.271
		c-0.308,0-0.576-0.151-0.809-0.453c-0.107-0.134-0.197-0.23-0.268-0.29c-0.068-0.06-0.168-0.09-0.297-0.09
		c-0.42,0-0.748,0.229-0.982,0.684c-0.233,0.455-0.352,0.928-0.352,1.417v1.405c0,0.452,0.059,0.763,0.174,0.929
		c0.115,0.167,0.422,0.25,0.918,0.25h0.427v0.745h-5.015v-0.745h0.42c0.451,0,0.729-0.085,0.832-0.259
		c0.102-0.172,0.154-0.479,0.154-0.92v-2.358c0-0.36-0.037-0.619-0.11-0.775c-0.073-0.155-0.203-0.26-0.392-0.311
		s-0.489-0.076-0.904-0.076v-0.744l3.15-0.693c0.08,0.274,0.154,0.858,0.225,1.752c0.151-0.317,0.349-0.608,0.594-0.873
		c0.246-0.264,0.52-0.476,0.824-0.637c0.305-0.162,0.615-0.242,0.933-0.242c0.442,0,0.792,0.124,1.051,0.371
		C79.343,54.586,79.473,54.889,79.473,55.243"/>
	<path fill="#228B22" d="M88.057,57.521c0,0.732-0.179,1.37-0.533,1.914c-0.355,0.544-0.836,0.96-1.441,1.247
		c-0.606,0.289-1.269,0.434-1.99,0.434c-0.679,0-1.32-0.133-1.927-0.396c-0.605-0.264-1.101-0.665-1.485-1.203
		c-0.386-0.539-0.578-1.197-0.578-1.979c0-1.168,0.398-2.055,1.195-2.661c0.797-0.604,1.745-0.908,2.843-0.908
		c0.818,0,1.524,0.162,2.117,0.484c0.591,0.323,1.039,0.757,1.343,1.3C87.904,56.296,88.057,56.886,88.057,57.521 M85.827,57.472
		c0-0.915-0.12-1.604-0.363-2.066c-0.242-0.463-0.713-0.694-1.413-0.694c-0.447,0-0.795,0.101-1.045,0.302
		c-0.251,0.202-0.426,0.515-0.525,0.938c-0.1,0.422-0.149,0.97-0.149,1.643c0,0.829,0.11,1.5,0.331,2.012
		c0.221,0.511,0.703,0.768,1.444,0.768c0.491,0,0.863-0.142,1.119-0.425c0.257-0.282,0.42-0.633,0.494-1.05
		C85.792,58.48,85.827,58.005,85.827,57.472"/>
	<path fill="#228B22" d="M92.62,61.051c0,0.532-0.022,0.978-0.064,1.335c-0.044,0.358-0.153,0.688-0.332,0.99
		c-0.333,0.586-0.753,0.984-1.258,1.194c-0.508,0.211-1.014,0.315-1.521,0.315c-0.753,0-1.313-0.14-1.679-0.419
		c-0.366-0.281-0.55-0.608-0.55-0.986c0-0.264,0.101-0.484,0.298-0.662c0.2-0.179,0.429-0.266,0.687-0.266
		c0.297,0,0.517,0.089,0.659,0.271c0.143,0.179,0.26,0.404,0.352,0.674c0.081,0.193,0.162,0.337,0.245,0.433
		c0.084,0.094,0.208,0.141,0.369,0.141c0.215,0,0.374-0.077,0.48-0.229c0.104-0.155,0.169-0.363,0.194-0.627
		c0.023-0.263,0.035-0.679,0.035-1.243v-5.605c0-0.296-0.03-0.507-0.093-0.634c-0.062-0.126-0.185-0.213-0.367-0.258
		s-0.471-0.068-0.864-0.068v-0.744l3.408-0.694V61.051z M92.887,50.81c0,0.323-0.115,0.599-0.344,0.828
		c-0.229,0.228-0.505,0.343-0.827,0.343c-0.319,0-0.594-0.117-0.829-0.352c-0.233-0.233-0.351-0.507-0.351-0.819
		c0-0.323,0.114-0.601,0.347-0.832s0.509-0.347,0.833-0.347c0.327,0,0.605,0.112,0.831,0.339S92.887,50.476,92.887,50.81"/>
	<path fill="#228B22" d="M101.769,57.295h-4.966c0.005,0.101,0.021,0.319,0.045,0.653c0.023,0.334,0.1,0.676,0.226,1.025
		c0.127,0.352,0.345,0.646,0.654,0.884c0.311,0.24,0.725,0.361,1.248,0.361c0.285,0,0.63-0.072,1.034-0.219
		c0.403-0.146,0.754-0.425,1.05-0.841l0.63,0.428c-0.636,1.02-1.646,1.528-3.029,1.528c-0.618,0-1.183-0.09-1.691-0.267
		c-0.509-0.179-0.94-0.425-1.297-0.744c-0.354-0.318-0.628-0.691-0.815-1.122c-0.188-0.43-0.283-0.894-0.283-1.39
		c0-0.651,0.158-1.253,0.473-1.809c0.316-0.554,0.767-0.996,1.354-1.324s1.256-0.493,2.011-0.493c0.736,0,1.36,0.159,1.87,0.478
		c0.509,0.317,0.884,0.729,1.126,1.234C101.648,56.186,101.769,56.725,101.769,57.295 M99.767,56.552
		c0-1.229-0.484-1.841-1.453-1.841c-0.469,0-0.828,0.169-1.079,0.509c-0.249,0.338-0.389,0.782-0.416,1.332H99.767z"/>
	<path fill="#228B22" d="M110.048,59.208c-0.652,1.271-1.698,1.907-3.143,1.907c-0.672,0-1.309-0.138-1.909-0.412
		s-1.082-0.673-1.445-1.195c-0.363-0.523-0.545-1.133-0.545-1.834c0-0.484,0.098-0.946,0.295-1.388
		c0.196-0.442,0.48-0.841,0.852-1.196c0.372-0.355,0.813-0.632,1.32-0.827c0.509-0.197,1.055-0.296,1.635-0.296
		c0.743,0,1.397,0.146,1.963,0.44c0.566,0.295,0.85,0.698,0.85,1.215c0,0.238-0.091,0.439-0.268,0.606
		c-0.178,0.167-0.383,0.25-0.613,0.25c-0.221,0-0.392-0.051-0.51-0.152c-0.117-0.104-0.197-0.207-0.233-0.316
		c-0.039-0.106-0.092-0.298-0.162-0.572c-0.068-0.264-0.186-0.451-0.348-0.563c-0.16-0.109-0.387-0.164-0.679-0.164
		c-0.49,0-0.924,0.182-1.304,0.544c-0.379,0.364-0.569,1.043-0.569,2.04c0,0.533,0.076,1.023,0.23,1.468
		c0.153,0.448,0.396,0.803,0.726,1.063c0.332,0.262,0.738,0.393,1.217,0.393c0.533,0,0.939-0.133,1.219-0.396
		c0.28-0.264,0.527-0.573,0.743-0.929L110.048,59.208z"/>
	<path fill="#228B22" d="M116.34,59.41c-0.292,0.609-0.631,1.045-1.019,1.309s-0.843,0.396-1.364,0.396
		c-0.636,0-1.103-0.13-1.405-0.389c-0.302-0.259-0.487-0.547-0.558-0.869c-0.07-0.318-0.105-0.679-0.105-1.076v-3.805h-1.219v-0.742
		c0.512,0,0.955-0.098,1.333-0.291c0.377-0.194,0.673-0.455,0.892-0.784c0.219-0.328,0.356-0.681,0.415-1.058h0.663v2.133h2.285
		v0.742h-2.285v3.853c0,0.468,0.031,0.806,0.093,1.014c0.061,0.207,0.214,0.312,0.457,0.312c0.258,0,0.471-0.103,0.638-0.304
		c0.167-0.202,0.328-0.453,0.484-0.755L116.34,59.41z"/>
</g>
</svg>
